<mxfile host="65bd71144e">
    <diagram id="h4PTGumwgIuKDRq8Zmf8" name="DEMO-APP">
        <mxGraphModel dx="2875" dy="969" grid="1" gridSize="10" guides="1" tooltips="1" connect="1" arrows="1" fold="1" page="0" pageScale="1" pageWidth="850" pageHeight="1100" math="0" shadow="0">
            <root>
                <mxCell id="0"/>
                <mxCell id="1" parent="0"/>
                <mxCell id="70" value="" style="rounded=0;whiteSpace=wrap;html=1;labelBackgroundColor=default;fontFamily=JetBrains Mono;fontSource=https%3A%2F%2Ffonts.googleapis.com%2Fcss%3Ffamily%3DJetBrains%2BMono;fontStyle=1;strokeWidth=2;strokeColor=none;" parent="1" vertex="1">
                    <mxGeometry x="-120" y="-280" width="1120" height="600" as="geometry"/>
                </mxCell>
                <mxCell id="2" value="" style="rounded=1;whiteSpace=wrap;html=1;fillColor=#f5f5fb;fontFamily=JetBrains Mono;fontSource=https%3A%2F%2Ffonts.googleapis.com%2Fcss%3Ffamily%3DJetBrains%2BMono;fontSize=11;strokeWidth=2;dashed=1;dashPattern=1 1;fontStyle=1;arcSize=5;strokeColor=#969dc4;" parent="1" vertex="1">
                    <mxGeometry x="140" y="-120" width="520" height="400" as="geometry"/>
                </mxCell>
                <mxCell id="3" value="demo-app" style="text;html=1;align=left;verticalAlign=middle;resizable=0;points=[];autosize=1;strokeColor=none;fillColor=none;fontFamily=JetBrains Mono;fontSource=https%3A%2F%2Ffonts.googleapis.com%2Fcss%3Ffamily%3DJetBrains%2BMono;fontSize=11;strokeWidth=1;fontStyle=1" parent="1" vertex="1">
                    <mxGeometry x="149.5" y="-120" width="80" height="30" as="geometry"/>
                </mxCell>
                <mxCell id="9" style="edgeStyle=orthogonalEdgeStyle;html=1;exitX=1;exitY=0.5;exitDx=0;exitDy=0;fontFamily=JetBrains Mono;fontSource=https%3A%2F%2Ffonts.googleapis.com%2Fcss%3Ffamily%3DJetBrains%2BMono;fontSize=11;strokeWidth=2;entryX=0;entryY=0.5;entryDx=0;entryDy=0;fontStyle=1;fillColor=#5e6697;strokeColor=#5e6697;" parent="1" source="4" target="14" edge="1">
                    <mxGeometry relative="1" as="geometry">
                        <Array as="points">
                            <mxPoint x="180" y="60"/>
                            <mxPoint x="180" y="-20"/>
                        </Array>
                    </mxGeometry>
                </mxCell>
                <mxCell id="4" value="ingress" style="rounded=1;whiteSpace=wrap;html=1;fontFamily=JetBrains Mono;fontSource=https%3A%2F%2Ffonts.googleapis.com%2Fcss%3Ffamily%3DJetBrains%2BMono;fillColor=#ffab40;fontSize=11;strokeWidth=1;strokeColor=none;fontStyle=1;fontColor=#f5f5fb;" parent="1" vertex="1">
                    <mxGeometry x="40" y="40" width="120" height="40" as="geometry"/>
                </mxCell>
                <mxCell id="6" style="edgeStyle=orthogonalEdgeStyle;html=1;exitX=0;exitY=0.5;exitDx=0;exitDy=0;fontFamily=JetBrains Mono;fontSource=https%3A%2F%2Ffonts.googleapis.com%2Fcss%3Ffamily%3DJetBrains%2BMono;fontSize=11;strokeWidth=2;startArrow=classic;startFill=1;entryX=0.5;entryY=1;entryDx=0;entryDy=0;fontStyle=1;fillColor=#5e6697;strokeColor=#5e6697;" parent="1" source="5" target="4" edge="1">
                    <mxGeometry relative="1" as="geometry">
                        <Array as="points">
                            <mxPoint x="100" y="220"/>
                        </Array>
                    </mxGeometry>
                </mxCell>
                <mxCell id="5" value="dex" style="rounded=1;whiteSpace=wrap;html=1;fontFamily=JetBrains Mono;fontSource=https%3A%2F%2Ffonts.googleapis.com%2Fcss%3Ffamily%3DJetBrains%2BMono;fillColor=#6a01ff;fontSize=11;strokeWidth=1;strokeColor=none;fontStyle=1;fontColor=#f5f5fb;" parent="1" vertex="1">
                    <mxGeometry x="240" y="200" width="40" height="40" as="geometry"/>
                </mxCell>
                <mxCell id="8" style="edgeStyle=none;html=1;fontFamily=JetBrains Mono;fontSource=https%3A%2F%2Ffonts.googleapis.com%2Fcss%3Ffamily%3DJetBrains%2BMono;fontSize=11;strokeWidth=2;fontStyle=1;fillColor=#5e6697;strokeColor=#5e6697;exitX=0.6;exitY=0.107;exitDx=0;exitDy=0;exitPerimeter=0;" parent="1" source="95" target="4" edge="1">
                    <mxGeometry relative="1" as="geometry">
                        <mxPoint x="-60" y="60" as="sourcePoint"/>
                    </mxGeometry>
                </mxCell>
                <mxCell id="18" style="edgeStyle=orthogonalEdgeStyle;html=1;fontFamily=JetBrains Mono;fontSource=https%3A%2F%2Ffonts.googleapis.com%2Fcss%3Ffamily%3DJetBrains%2BMono;fontSize=11;strokeWidth=2;entryX=0;entryY=0.5;entryDx=0;entryDy=0;fontStyle=1;fillColor=#5e6697;strokeColor=#5e6697;" parent="1" source="14" target="15" edge="1">
                    <mxGeometry relative="1" as="geometry">
                        <Array as="points">
                            <mxPoint x="340" y="-20"/>
                            <mxPoint x="340" y="-60"/>
                        </Array>
                    </mxGeometry>
                </mxCell>
                <mxCell id="19" style="edgeStyle=orthogonalEdgeStyle;html=1;fontFamily=JetBrains Mono;fontSource=https%3A%2F%2Ffonts.googleapis.com%2Fcss%3Ffamily%3DJetBrains%2BMono;fontSize=11;strokeWidth=2;startArrow=none;exitX=1;exitY=0.5;exitDx=0;exitDy=0;entryX=0;entryY=0.5;entryDx=0;entryDy=0;fontStyle=1;fillColor=#5e6697;strokeColor=#5e6697;" parent="1" source="14" target="16" edge="1">
                    <mxGeometry relative="1" as="geometry">
                        <Array as="points">
                            <mxPoint x="340" y="-20"/>
                            <mxPoint x="340" y="20"/>
                        </Array>
                    </mxGeometry>
                </mxCell>
                <mxCell id="14" value="LB" style="rounded=1;whiteSpace=wrap;html=1;fontFamily=JetBrains Mono;fontSource=https%3A%2F%2Ffonts.googleapis.com%2Fcss%3Ffamily%3DJetBrains%2BMono;fillColor=#38cda9;fontSize=11;strokeWidth=1;strokeColor=none;fontStyle=1;fontColor=#f5f5fb;" parent="1" vertex="1">
                    <mxGeometry x="240" y="-40" width="40" height="40" as="geometry"/>
                </mxCell>
                <mxCell id="15" value="frontend VM&amp;nbsp;" style="rounded=1;whiteSpace=wrap;html=1;fontFamily=JetBrains Mono;fontSource=https%3A%2F%2Ffonts.googleapis.com%2Fcss%3Ffamily%3DJetBrains%2BMono;fillColor=#0064ff;fontSize=11;strokeWidth=1;strokeColor=none;fontColor=#f5f5fb;fontStyle=1" parent="1" vertex="1">
                    <mxGeometry x="440" y="-80" width="120" height="40" as="geometry"/>
                </mxCell>
                <mxCell id="16" value="frontend Pod&amp;nbsp;" style="rounded=1;whiteSpace=wrap;html=1;fontFamily=JetBrains Mono;fontSource=https%3A%2F%2Ffonts.googleapis.com%2Fcss%3Ffamily%3DJetBrains%2BMono;fillColor=#da47ff;fontSize=11;strokeWidth=1;strokeColor=none;fontStyle=1;fontColor=#f5f5fb;" parent="1" vertex="1">
                    <mxGeometry x="440" width="120" height="40" as="geometry"/>
                </mxCell>
                <mxCell id="55" style="edgeStyle=orthogonalEdgeStyle;html=1;exitX=0.5;exitY=1;exitDx=0;exitDy=0;fontSize=11;endArrow=classic;endFill=1;startArrow=classic;startFill=1;strokeColor=#ffab40;fontFamily=JetBrains Mono;fontSource=https%3A%2F%2Ffonts.googleapis.com%2Fcss%3Ffamily%3DJetBrains%2BMono;fontStyle=1;fillColor=#ffab40;strokeWidth=2;" parent="1" source="17" target="46" edge="1">
                    <mxGeometry relative="1" as="geometry"/>
                </mxCell>
                <mxCell id="17" value="backend-a VM" style="rounded=1;whiteSpace=wrap;html=1;fontFamily=JetBrains Mono;fontSource=https%3A%2F%2Ffonts.googleapis.com%2Fcss%3Ffamily%3DJetBrains%2BMono;fillColor=#0064ff;fontSize=11;strokeWidth=1;strokeColor=none;fontColor=#f5f5fb;fontStyle=1" parent="1" vertex="1">
                    <mxGeometry x="440" y="80" width="120" height="40" as="geometry"/>
                </mxCell>
                <mxCell id="69" style="edgeStyle=orthogonalEdgeStyle;html=1;exitX=0.5;exitY=0;exitDx=0;exitDy=0;strokeColor=#5e6697;fontFamily=JetBrains Mono;fontSource=https%3A%2F%2Ffonts.googleapis.com%2Fcss%3Ffamily%3DJetBrains%2BMono;fontSize=12;fontColor=#000000;startArrow=classic;startFill=1;endArrow=classic;endFill=1;fontStyle=1;strokeWidth=2;fillColor=#5e6697;entryX=0.512;entryY=1.024;entryDx=0;entryDy=0;entryPerimeter=0;" parent="1" source="22" target="103" edge="1">
                    <mxGeometry relative="1" as="geometry">
                        <mxPoint x="810" y="-170" as="targetPoint"/>
                    </mxGeometry>
                </mxCell>
                <mxCell id="22" value="" style="rounded=1;whiteSpace=wrap;html=1;fillColor=#f5f5fb;fontFamily=JetBrains Mono;fontSource=https%3A%2F%2Ffonts.googleapis.com%2Fcss%3Ffamily%3DJetBrains%2BMono;fontSize=11;strokeWidth=2;dashed=1;dashPattern=1 1;strokeColor=#969dc4;fontStyle=1;arcSize=7;" parent="1" vertex="1">
                    <mxGeometry x="700" y="-120" width="260" height="400" as="geometry"/>
                </mxCell>
                <mxCell id="23" value="demo-db" style="text;html=1;align=left;verticalAlign=middle;resizable=0;points=[];autosize=1;strokeColor=none;fillColor=none;fontFamily=JetBrains Mono;fontSource=https%3A%2F%2Ffonts.googleapis.com%2Fcss%3Ffamily%3DJetBrains%2BMono;fontSize=11;strokeWidth=1;fontStyle=1" parent="1" vertex="1">
                    <mxGeometry x="714.75" y="-120" width="70" height="30" as="geometry"/>
                </mxCell>
                <mxCell id="28" value="db VM" style="rounded=1;whiteSpace=wrap;html=1;fontFamily=JetBrains Mono;fontSource=https%3A%2F%2Ffonts.googleapis.com%2Fcss%3Ffamily%3DJetBrains%2BMono;fillColor=#0064ff;fontSize=11;strokeWidth=1;strokeColor=none;fontColor=#f5f5fb;fontStyle=1" parent="1" vertex="1">
                    <mxGeometry x="770" y="-80" width="120" height="40" as="geometry"/>
                </mxCell>
                <mxCell id="49" value="" style="edgeStyle=orthogonalEdgeStyle;html=1;exitX=1;exitY=0.5;exitDx=0;exitDy=0;entryX=0;entryY=0.5;entryDx=0;entryDy=0;strokeWidth=2;fontFamily=JetBrains Mono;fontSource=https%3A%2F%2Ffonts.googleapis.com%2Fcss%3Ffamily%3DJetBrains%2BMono;fontSize=11;endArrow=classic;endFill=1;fontStyle=1;fillColor=#5e6697;strokeColor=#5e6697;" parent="1" source="4" target="48" edge="1">
                    <mxGeometry relative="1" as="geometry">
                        <Array as="points">
                            <mxPoint x="180" y="60"/>
                            <mxPoint x="180" y="140"/>
                        </Array>
                        <mxPoint x="40" y="100" as="sourcePoint"/>
                        <mxPoint x="440" y="100" as="targetPoint"/>
                    </mxGeometry>
                </mxCell>
                <mxCell id="50" style="edgeStyle=orthogonalEdgeStyle;html=1;exitX=1;exitY=0.5;exitDx=0;exitDy=0;entryX=0;entryY=0.5;entryDx=0;entryDy=0;fontFamily=JetBrains Mono;fontSource=https%3A%2F%2Ffonts.googleapis.com%2Fcss%3Ffamily%3DJetBrains%2BMono;fontSize=11;fontStyle=1;strokeWidth=2;fillColor=#5e6697;strokeColor=#5e6697;" parent="1" source="48" target="17" edge="1">
                    <mxGeometry relative="1" as="geometry">
                        <Array as="points">
                            <mxPoint x="340" y="140"/>
                            <mxPoint x="340" y="100"/>
                        </Array>
                    </mxGeometry>
                </mxCell>
                <mxCell id="52" style="edgeStyle=orthogonalEdgeStyle;html=1;exitX=1;exitY=0.5;exitDx=0;exitDy=0;fontFamily=JetBrains Mono;fontSource=https%3A%2F%2Ffonts.googleapis.com%2Fcss%3Ffamily%3DJetBrains%2BMono;fontSize=11;fontStyle=1;strokeWidth=2;fillColor=#5e6697;strokeColor=#5e6697;" parent="1" source="48" target="46" edge="1">
                    <mxGeometry relative="1" as="geometry">
                        <Array as="points">
                            <mxPoint x="340" y="140"/>
                            <mxPoint x="340" y="180"/>
                        </Array>
                    </mxGeometry>
                </mxCell>
                <mxCell id="48" value="LB" style="rounded=1;whiteSpace=wrap;html=1;fontFamily=JetBrains Mono;fontSource=https%3A%2F%2Ffonts.googleapis.com%2Fcss%3Ffamily%3DJetBrains%2BMono;fillColor=#38cda9;fontSize=11;strokeWidth=1;strokeColor=none;fontStyle=1;fontColor=#f5f5fb;" parent="1" vertex="1">
                    <mxGeometry x="240" y="120" width="40" height="40" as="geometry"/>
                </mxCell>
                <mxCell id="46" value="backend-b VM" style="rounded=1;whiteSpace=wrap;html=1;fontFamily=JetBrains Mono;fontSource=https%3A%2F%2Ffonts.googleapis.com%2Fcss%3Ffamily%3DJetBrains%2BMono;fillColor=#0064ff;fontSize=11;strokeWidth=1;strokeColor=none;fontColor=#f5f5fb;fontStyle=1" parent="1" vertex="1">
                    <mxGeometry x="440" y="160" width="120" height="40" as="geometry"/>
                </mxCell>
                <mxCell id="45" value="&lt;font style=&quot;font-size: 8px;&quot;&gt;path: /api&lt;/font&gt;" style="text;html=1;align=left;verticalAlign=middle;resizable=0;points=[];autosize=1;strokeColor=#cdd1e6;fillColor=#cdd1e6;fontSize=8;fontFamily=JetBrains Mono;fontSource=https%3A%2F%2Ffonts.googleapis.com%2Fcss%3Ffamily%3DJetBrains%2BMono;labelBackgroundColor=none;fontStyle=1" parent="1" vertex="1">
                    <mxGeometry x="149.25" y="100" width="70" height="20" as="geometry"/>
                </mxCell>
                <mxCell id="44" value="path: /" style="text;html=1;align=left;verticalAlign=middle;resizable=0;points=[];autosize=1;strokeColor=#cdd1e6;fillColor=#cdd1e6;fontSize=8;fontFamily=JetBrains Mono;labelBackgroundColor=none;fontSource=https%3A%2F%2Ffonts.googleapis.com%2Fcss%3Ffamily%3DJetBrains%2BMono;fontStyle=1;" parent="1" vertex="1">
                    <mxGeometry x="149.5" width="60" height="20" as="geometry"/>
                </mxCell>
                <mxCell id="57" style="edgeStyle=orthogonalEdgeStyle;html=1;exitX=0.5;exitY=1;exitDx=0;exitDy=0;fontSize=11;endArrow=classic;endFill=1;startArrow=classic;startFill=1;strokeColor=#ffab40;fontFamily=JetBrains Mono;fontSource=https%3A%2F%2Ffonts.googleapis.com%2Fcss%3Ffamily%3DJetBrains%2BMono;fontStyle=1;fillColor=#ffab40;strokeWidth=2;" parent="1" source="15" edge="1">
                    <mxGeometry relative="1" as="geometry">
                        <mxPoint x="509.9999999999998" y="130" as="sourcePoint"/>
                        <mxPoint x="500" as="targetPoint"/>
                    </mxGeometry>
                </mxCell>
                <mxCell id="58" value="&lt;p style=&quot;margin: 2rem 0px 1rem; padding: 0px; border: 0px; vertical-align: baseline; break-after: avoid; line-height: 2rem; color: rgb(51, 51, 51);&quot;&gt;&lt;br&gt;&lt;/p&gt;" style="text;html=1;align=left;verticalAlign=middle;resizable=0;points=[];autosize=1;strokeColor=none;fillColor=none;fontSize=11;fontFamily=JetBrains Mono;fontSource=https%3A%2F%2Ffonts.googleapis.com%2Fcss%3Ffamily%3DJetBrains%2BMono;fontStyle=1" parent="1" vertex="1">
                    <mxGeometry x="520" y="-70" width="20" height="90" as="geometry"/>
                </mxCell>
                <mxCell id="60" value="&lt;font&gt;5000/TCP&lt;/font&gt;" style="text;html=1;align=left;verticalAlign=middle;resizable=0;points=[];autosize=1;strokeColor=none;fillColor=none;fontSize=11;fontFamily=JetBrains Mono;fontColor=#666666;fontSource=https%3A%2F%2Ffonts.googleapis.com%2Fcss%3Ffamily%3DJetBrains%2BMono;fontStyle=1" parent="1" vertex="1">
                    <mxGeometry x="430" y="125" width="80" height="30" as="geometry"/>
                </mxCell>
                <mxCell id="61" value="&lt;font&gt;80/TCP&lt;/font&gt;" style="text;html=1;align=left;verticalAlign=middle;resizable=0;points=[];autosize=1;strokeColor=none;fillColor=none;fontSize=11;fontFamily=JetBrains Mono;fontColor=#666666;fontSource=https%3A%2F%2Ffonts.googleapis.com%2Fcss%3Ffamily%3DJetBrains%2BMono;fontStyle=1" parent="1" vertex="1">
                    <mxGeometry x="430" y="-35" width="60" height="30" as="geometry"/>
                </mxCell>
                <mxCell id="62" value="&lt;font style=&quot;font-size: 12px;&quot;&gt;&lt;span style=&quot;&quot;&gt;5432&lt;/span&gt;/TCP&lt;/font&gt;" style="text;html=1;align=center;verticalAlign=middle;resizable=0;points=[];autosize=1;strokeColor=none;fillColor=none;fontSize=11;fontFamily=JetBrains Mono;fontColor=#666666;fontSource=https%3A%2F%2Ffonts.googleapis.com%2Fcss%3Ffamily%3DJetBrains%2BMono;fontStyle=1" parent="1" vertex="1">
                    <mxGeometry x="750" y="-40" width="80" height="30" as="geometry"/>
                </mxCell>
                <mxCell id="66" value="" style="edgeStyle=orthogonalEdgeStyle;html=1;strokeColor=#5e6697;fontFamily=JetBrains Mono;fontSource=https%3A%2F%2Ffonts.googleapis.com%2Fcss%3Ffamily%3DJetBrains%2BMono;fontSize=12;fontColor=#000000;startArrow=classic;startFill=1;endArrow=classic;endFill=1;fontStyle=1;strokeWidth=2;fillColor=#5e6697;" parent="1" target="2" edge="1">
                    <mxGeometry relative="1" as="geometry">
                        <mxPoint x="400" y="-170" as="sourcePoint"/>
                    </mxGeometry>
                </mxCell>
                <mxCell id="32" style="edgeStyle=orthogonalEdgeStyle;html=1;exitX=1;exitY=0.5;exitDx=0;exitDy=0;fontFamily=JetBrains Mono;fontSource=https%3A%2F%2Ffonts.googleapis.com%2Fcss%3Ffamily%3DJetBrains%2BMono;fontSize=11;strokeWidth=2;startArrow=none;fontStyle=1;strokeColor=#5e6697;fillColor=#5e6697;" parent="1" source="46" target="28" edge="1">
                    <mxGeometry relative="1" as="geometry">
                        <Array as="points">
                            <mxPoint x="620" y="180"/>
                            <mxPoint x="620" y="140"/>
                            <mxPoint x="830" y="140"/>
                        </Array>
                        <mxPoint x="810" y="-40" as="targetPoint"/>
                    </mxGeometry>
                </mxCell>
                <mxCell id="75" style="edgeStyle=orthogonalEdgeStyle;html=1;exitX=1;exitY=0.5;exitDx=0;exitDy=0;entryX=0.5;entryY=1;entryDx=0;entryDy=0;fontFamily=JetBrains Mono;fontSource=https%3A%2F%2Ffonts.googleapis.com%2Fcss%3Ffamily%3DJetBrains%2BMono;fontStyle=1;strokeWidth=2;strokeColor=#5e6697;fillColor=#5e6697;" parent="1" source="17" target="73" edge="1">
                    <mxGeometry relative="1" as="geometry">
                        <Array as="points">
                            <mxPoint x="620" y="100"/>
                            <mxPoint x="620" y="140"/>
                            <mxPoint x="830" y="140"/>
                        </Array>
                    </mxGeometry>
                </mxCell>
                <mxCell id="73" value="LB" style="rounded=1;whiteSpace=wrap;html=1;fontFamily=JetBrains Mono;fontSource=https%3A%2F%2Ffonts.googleapis.com%2Fcss%3Ffamily%3DJetBrains%2BMono;fillColor=#38cda9;fontSize=11;strokeWidth=1;strokeColor=none;fontStyle=1;fontColor=#f5f5fb;" parent="1" vertex="1">
                    <mxGeometry x="810" y="40" width="40" height="40" as="geometry"/>
                </mxCell>
                <mxCell id="93" value="&lt;font style=&quot;font-size: 48px;&quot;&gt;🤵&lt;/font&gt;" style="text;html=1;align=center;verticalAlign=middle;resizable=0;points=[];autosize=1;strokeColor=none;fillColor=none;" parent="1" vertex="1">
                    <mxGeometry x="-70" y="20" width="80" height="70" as="geometry"/>
                </mxCell>
                <mxCell id="94" value="👨‍💻" style="text;html=1;align=center;verticalAlign=middle;resizable=0;points=[];autosize=1;strokeColor=none;fillColor=none;fontSize=48;" parent="1" vertex="1">
                    <mxGeometry x="360" y="-240" width="80" height="70" as="geometry"/>
                </mxCell>
                <mxCell id="95" value="&lt;font data-font-src=&quot;https://fonts.googleapis.com/css?family=JetBrains+Mono&quot; style=&quot;font-size: 14px;&quot;&gt;demo-user&lt;/font&gt;" style="text;html=1;align=center;verticalAlign=middle;resizable=0;points=[];autosize=1;strokeColor=none;fillColor=none;fontSize=48;fontFamily=JetBrains Mono;fontSource=https%3A%2F%2Ffonts.googleapis.com%2Fcss%3Ffamily%3DJetBrains%2BMono;fontColor=default;fontStyle=1;" parent="1" vertex="1">
                    <mxGeometry x="-80" y="52.5" width="100" height="70" as="geometry"/>
                </mxCell>
                <mxCell id="96" value="&lt;font data-font-src=&quot;https://fonts.googleapis.com/css?family=JetBrains+Mono&quot; face=&quot;JetBrains Mono&quot; style=&quot;font-size: 14px;&quot;&gt;demo-app-admin&lt;/font&gt;" style="text;html=1;align=left;verticalAlign=middle;resizable=0;points=[];autosize=1;strokeColor=none;fillColor=none;fontSize=48;fontColor=default;fontStyle=1;" parent="1" vertex="1">
                    <mxGeometry x="340" y="-290" width="140" height="70" as="geometry"/>
                </mxCell>
                <mxCell id="98" value="&lt;font data-font-src=&quot;https://fonts.googleapis.com/css?family=JetBrains+Mono&quot; face=&quot;JetBrains Mono&quot; style=&quot;font-size: 14px;&quot;&gt;demo-db-admin&lt;/font&gt;" style="text;html=1;align=left;verticalAlign=middle;resizable=0;points=[];autosize=1;strokeColor=none;fillColor=none;fontSize=48;fontColor=default;fontStyle=1;" parent="1" vertex="1">
                    <mxGeometry x="770" y="-290" width="130" height="70" as="geometry"/>
                </mxCell>
                <mxCell id="103" value="👨‍💻" style="text;html=1;align=center;verticalAlign=middle;resizable=0;points=[];autosize=1;strokeColor=none;fillColor=none;fontSize=48;" parent="1" vertex="1">
                    <mxGeometry x="790" y="-240" width="80" height="70" as="geometry"/>
                </mxCell>
                <mxCell id="106" value="&lt;strong style=&quot;margin: 0px; padding: 0px; border: 0px; vertical-align: baseline; font-weight: 700; font-size: 11px; font-style: normal; font-variant-ligatures: normal; font-variant-caps: normal; letter-spacing: normal; orphans: 2; text-align: left; text-indent: 0px; text-transform: none; widows: 2; word-spacing: 0px; -webkit-text-stroke-width: 0px; text-decoration-thickness: initial; text-decoration-style: initial; text-decoration-color: initial;&quot;&gt;Anti-Affinity&lt;/strong&gt;" style="text;html=1;align=center;verticalAlign=middle;resizable=0;points=[];autosize=1;strokeColor=none;fillColor=none;fontSize=11;fontFamily=JetBrains Mono;labelBackgroundColor=none;fontSource=https%3A%2F%2Ffonts.googleapis.com%2Fcss%3Ffamily%3DJetBrains%2BMono;fontColor=#666666;" vertex="1" parent="1">
                    <mxGeometry x="500" y="-35" width="110" height="30" as="geometry"/>
                </mxCell>
                <mxCell id="107" value="&lt;strong style=&quot;margin: 0px; padding: 0px; border: 0px; vertical-align: baseline; font-weight: 700; font-size: 11px; font-style: normal; font-variant-ligatures: normal; font-variant-caps: normal; letter-spacing: normal; orphans: 2; text-align: left; text-indent: 0px; text-transform: none; widows: 2; word-spacing: 0px; -webkit-text-stroke-width: 0px; text-decoration-thickness: initial; text-decoration-style: initial; text-decoration-color: initial;&quot;&gt;Anti-Affinity&lt;/strong&gt;" style="text;html=1;align=center;verticalAlign=middle;resizable=0;points=[];autosize=1;strokeColor=none;fillColor=none;fontSize=11;fontFamily=JetBrains Mono;labelBackgroundColor=none;fontSource=https%3A%2F%2Ffonts.googleapis.com%2Fcss%3Ffamily%3DJetBrains%2BMono;fontColor=#666666;" vertex="1" parent="1">
                    <mxGeometry x="500" y="125" width="110" height="30" as="geometry"/>
                </mxCell>
                <mxCell id="116" value="" style="group" vertex="1" connectable="0" parent="1">
                    <mxGeometry x="320" y="-40" width="50" height="40" as="geometry"/>
                </mxCell>
                <mxCell id="115" value="" style="rounded=0;whiteSpace=wrap;html=1;labelBackgroundColor=none;strokeColor=none;strokeWidth=2;fontFamily=JetBrains Mono;fontSource=https%3A%2F%2Ffonts.googleapis.com%2Fcss%3Ffamily%3DJetBrains%2BMono;fontSize=11;fontColor=#666666;" vertex="1" parent="116">
                    <mxGeometry width="50" height="40" as="geometry"/>
                </mxCell>
                <mxCell id="36" value="" style="verticalLabelPosition=bottom;sketch=0;html=1;fillColor=#e51601;strokeColor=none;verticalAlign=top;pointerEvents=1;align=center;shape=mxgraph.cisco_safe.security_icons.firewall;strokeWidth=14;fontFamily=JetBrains Mono;fontSource=https%3A%2F%2Ffonts.googleapis.com%2Fcss%3Ffamily%3DJetBrains%2BMono;fontSize=11;fontColor=#f5f5fb;fontStyle=1;" parent="116" vertex="1">
                    <mxGeometry y="2.5" width="49.5" height="35" as="geometry"/>
                </mxCell>
                <mxCell id="117" value="" style="group" vertex="1" connectable="0" parent="1">
                    <mxGeometry x="320" y="120" width="50" height="40" as="geometry"/>
                </mxCell>
                <mxCell id="118" value="" style="rounded=0;whiteSpace=wrap;html=1;labelBackgroundColor=none;strokeColor=none;strokeWidth=2;fontFamily=JetBrains Mono;fontSource=https%3A%2F%2Ffonts.googleapis.com%2Fcss%3Ffamily%3DJetBrains%2BMono;fontSize=11;fontColor=#666666;" vertex="1" parent="117">
                    <mxGeometry width="50" height="40" as="geometry"/>
                </mxCell>
                <mxCell id="119" value="" style="verticalLabelPosition=bottom;sketch=0;html=1;fillColor=#e51601;strokeColor=none;verticalAlign=top;pointerEvents=1;align=center;shape=mxgraph.cisco_safe.security_icons.firewall;strokeWidth=14;fontFamily=JetBrains Mono;fontSource=https%3A%2F%2Ffonts.googleapis.com%2Fcss%3Ffamily%3DJetBrains%2BMono;fontSize=11;fontColor=#f5f5fb;fontStyle=1;" vertex="1" parent="117">
                    <mxGeometry y="2.5" width="49.5" height="35" as="geometry"/>
                </mxCell>
                <mxCell id="120" value="" style="group" vertex="1" connectable="0" parent="1">
                    <mxGeometry x="805" y="-10" width="50" height="40" as="geometry"/>
                </mxCell>
                <mxCell id="121" value="" style="rounded=0;whiteSpace=wrap;html=1;labelBackgroundColor=none;strokeColor=none;strokeWidth=2;fontFamily=JetBrains Mono;fontSource=https%3A%2F%2Ffonts.googleapis.com%2Fcss%3Ffamily%3DJetBrains%2BMono;fontSize=11;fontColor=#666666;" vertex="1" parent="120">
                    <mxGeometry width="50" height="40" as="geometry"/>
                </mxCell>
                <mxCell id="122" value="" style="verticalLabelPosition=bottom;sketch=0;html=1;fillColor=#e51601;strokeColor=none;verticalAlign=top;pointerEvents=1;align=center;shape=mxgraph.cisco_safe.security_icons.firewall;strokeWidth=14;fontFamily=JetBrains Mono;fontSource=https%3A%2F%2Ffonts.googleapis.com%2Fcss%3Ffamily%3DJetBrains%2BMono;fontSize=11;fontColor=#f5f5fb;fontStyle=1;" vertex="1" parent="120">
                    <mxGeometry y="2.5" width="49.5" height="35" as="geometry"/>
                </mxCell>
                <mxCell id="123" value="" style="group" vertex="1" connectable="0" parent="1">
                    <mxGeometry x="160" y="200" width="50" height="40" as="geometry"/>
                </mxCell>
                <mxCell id="124" value="" style="rounded=0;whiteSpace=wrap;html=1;labelBackgroundColor=none;strokeColor=none;strokeWidth=2;fontFamily=JetBrains Mono;fontSource=https%3A%2F%2Ffonts.googleapis.com%2Fcss%3Ffamily%3DJetBrains%2BMono;fontSize=11;fontColor=#666666;" vertex="1" parent="123">
                    <mxGeometry width="50" height="40" as="geometry"/>
                </mxCell>
                <mxCell id="125" value="" style="verticalLabelPosition=bottom;sketch=0;html=1;fillColor=#e51601;strokeColor=none;verticalAlign=top;pointerEvents=1;align=center;shape=mxgraph.cisco_safe.security_icons.firewall;strokeWidth=14;fontFamily=JetBrains Mono;fontSource=https%3A%2F%2Ffonts.googleapis.com%2Fcss%3Ffamily%3DJetBrains%2BMono;fontSize=11;fontColor=#f5f5fb;fontStyle=1;" vertex="1" parent="123">
                    <mxGeometry y="2.5" width="49.5" height="35" as="geometry"/>
                </mxCell>
            </root>
        </mxGraphModel>
    </diagram>
    <diagram id="cqKt61RSVgPAT91kerF-" name="Page-2">
        <mxGraphModel dx="2637" dy="916" grid="1" gridSize="10" guides="1" tooltips="1" connect="1" arrows="1" fold="1" page="1" pageScale="1" pageWidth="850" pageHeight="1100" math="0" shadow="0">
            <root>
                <mxCell id="0"/>
                <mxCell id="1" parent="0"/>
            </root>
        </mxGraphModel>
    </diagram>
</mxfile>
